<svg width="236" height="209" viewBox="0 0 236 209" fill="none" xmlns="http://www.w3.org/2000/svg">
<path d="M90.136 43.472C90.3067 46.3733 90.392 48.9333 90.392 51.152C90.392 55.0773 90.0507 59.6853 89.368 64.976C86.6373 64.5493 84.6747 64.336 83.48 64.336C81.176 64.336 78.0187 64.464 74.008 64.72H73.368C73.2827 65.488 73.24 67.7493 73.24 71.504C73.24 79.6107 73.5387 100.091 74.136 132.944C72.1733 133.285 69.4853 133.456 66.072 133.456H62.36C57.5813 133.456 53.8693 133.669 51.224 134.096C50.968 133.669 50.7547 132.731 50.584 131.28L48.664 131.536C48.2373 130.768 48.024 129.147 48.024 126.672L48.152 107.088C48.152 94.8853 47.768 80.72 47 64.592C46.3173 64.5067 45.2507 64.464 43.8 64.464C43.288 64.464 42.3493 64.464 40.984 64.464C39.704 64.464 38.5093 64.4213 37.4 64.336C36.376 64.2507 35.3947 64.0373 34.456 63.696C34.3707 63.5253 34.2853 63.2693 34.2 62.928C34.2 62.5867 34.0293 62.288 33.688 62.032C33.3467 61.776 32.7493 61.4773 31.896 61.136C31.64 60.5387 31.384 59.0027 31.128 56.528C30.9573 54.0533 30.872 51.3653 30.872 48.464C30.872 43.856 30.9147 40.5707 31 38.608C36.376 38.608 40.4293 38.5653 43.16 38.48L55.448 38.352C67.8213 38.352 78.1467 38.8213 86.424 39.76L87.576 40.912V42.192L88.984 42.32L90.136 43.472ZM32.28 39.888L32.408 40.144C32.2373 41.2533 32.152 42.8747 32.152 45.008C32.152 54.3093 32.408 59.3867 32.92 60.24C33.3467 60.4107 34.6693 60.496 36.888 60.496C39.8747 60.496 42.2213 60.5813 43.928 60.752C45.6347 60.8373 47.0853 61.1787 48.28 61.776L48.408 61.904C49.0907 77.4347 49.432 92.7947 49.432 107.984C49.432 114.555 49.3467 120.229 49.176 125.008V128.848L49.304 130.128C50.84 129.872 52.504 129.744 54.296 129.744H59.672C64.7067 129.744 68.248 129.573 70.296 129.232V128.976C69.6987 96.208 69.4 76.1973 69.4 68.944V64.336C69.4 62.6293 69.4853 61.6053 69.656 61.264L69.784 60.88H70.168C74.6053 60.624 78.104 60.496 80.664 60.496C82.712 60.496 84.4187 60.624 85.784 60.88C86.296 57.1253 86.552 53.0293 86.552 48.592C86.552 46.8 86.4667 44.2827 86.296 41.04C77.848 40.1867 67.5653 39.76 55.448 39.76L32.28 39.888ZM139.907 68.688C140.078 70.0533 140.163 71.12 140.163 71.888V73.168C140.078 75.472 140.035 78.8 140.035 83.152L140.163 97.488C140.248 100.731 140.291 105.552 140.291 111.952C140.291 116.987 140.163 122.149 139.907 127.44V128.336C139.907 130.128 139.779 131.451 139.523 132.304C139.267 133.157 138.499 133.712 137.219 133.968H135.427C134.232 133.968 132.696 133.883 130.819 133.712L127.107 133.584C126.51 133.584 125.614 133.669 124.419 133.84L121.603 133.968C120.238 133.627 119.342 132.773 118.915 131.408C117.806 130.981 117.123 130.512 116.867 130C112.43 132.731 108.035 134.096 103.683 134.096C99.1603 134.096 95.1497 132.133 91.651 128.208C88.2377 124.283 85.5923 119.376 83.715 113.488C81.923 107.515 81.027 101.669 81.027 95.952C81.027 89.4667 82.1363 83.92 84.355 79.312C86.5737 74.6187 89.603 71.0773 93.443 68.688C97.3683 66.2987 101.763 65.104 106.627 65.104C109.016 65.104 110.851 65.2747 112.131 65.616C113.496 65.9573 114.734 66.8107 115.843 68.176C115.928 67.7493 116.014 67.0667 116.099 66.128C116.184 65.1893 116.398 64.592 116.739 64.336C117.08 64.08 117.635 63.952 118.403 63.952C119.171 63.952 119.854 64.0373 120.451 64.208C121.134 64.2933 121.774 64.336 122.371 64.336H123.523C125.742 64.336 129.966 64.5493 136.195 64.976L137.347 66.128L137.475 67.536H138.755L139.907 68.688ZM122.115 65.616L118.659 65.488C117.806 65.488 117.294 66.0427 117.123 67.152C116.952 68.176 116.867 69.6693 116.867 71.632V72.272C116.099 70.3947 115.118 69.0293 113.923 68.176C112.728 67.3227 111.406 66.8107 109.955 66.64C108.504 66.4693 106.456 66.384 103.811 66.384C99.8003 66.4693 96.131 67.8347 92.803 70.48C89.5603 73.04 87.0003 76.5387 85.123 80.976C83.2457 85.4133 82.307 90.4053 82.307 95.952C82.307 100.987 82.9897 106.149 84.355 111.44C85.7203 116.731 87.811 121.211 90.627 124.88C93.5283 128.464 97.027 130.256 101.123 130.256C104.024 130.256 107.011 129.573 110.083 128.208C113.24 126.757 115.886 124.965 118.019 122.832C118.019 123.344 117.934 124.069 117.763 125.008C117.592 125.861 117.507 126.629 117.507 127.312C117.507 128.763 118.019 129.701 119.043 130.128C119.726 130.128 120.664 130.043 121.859 129.872L124.547 129.744L128.771 129.872C130.648 130.043 132.014 130.128 132.867 130.128H134.403C135.086 129.957 135.512 129.616 135.683 129.104C135.939 128.507 136.067 127.696 136.067 126.672V124.88C136.408 119.845 136.579 114.256 136.579 108.112L136.451 94.032C136.28 87.7173 136.195 82.9387 136.195 79.696C136.195 75.6853 136.238 72.656 136.323 70.608V69.328C136.323 68.6453 136.238 67.6213 136.067 66.256C133.678 66.0853 129.496 65.872 123.523 65.616H122.115ZM110.723 83.536C112.856 83.536 114.35 83.7493 115.203 84.176C116.142 84.5173 116.739 85.328 116.995 86.608C117.251 87.8027 117.379 89.8507 117.379 92.752V99.792C117.379 102.864 117.208 105.253 116.867 106.96C116.611 108.667 115.886 109.989 114.691 110.928C113.582 111.867 111.832 112.336 109.443 112.336C105.944 112.336 103.171 111.013 101.123 108.368C99.075 105.723 98.051 102.437 98.051 98.512C98.051 95.696 98.307 93.4347 98.819 91.728C99.331 89.424 100.611 87.504 102.659 85.968C104.707 84.3467 107.395 83.536 110.723 83.536ZM102.659 94.672C102.147 96.3787 101.891 98.512 101.891 101.072C101.891 107.728 104.408 111.056 109.443 111.056C111.576 111.056 113.112 110.587 114.051 109.648C114.99 108.709 115.544 107.429 115.715 105.808C115.971 104.187 116.099 101.712 116.099 98.384V95.056L116.227 91.216C116.227 89.8507 116.014 88.8693 115.587 88.272C115.246 87.6747 114.478 87.376 113.283 87.376C110.296 87.376 107.907 88.0587 106.115 89.424C104.323 90.7893 103.171 92.496 102.659 94.544V94.672ZM206.542 69.84C206.542 75.3013 205.049 80.4213 202.062 85.2C199.075 89.8933 195.107 93.648 190.158 96.464C185.294 99.1947 180.174 100.56 174.798 100.56C173.347 100.56 172.281 100.517 171.598 100.432V105.808C171.598 114 171.726 122.875 171.982 132.432C171.129 132.432 169.934 132.56 168.398 132.816C167.801 132.901 166.478 133.029 164.43 133.2C162.467 133.456 160.59 133.584 158.798 133.584C154.958 133.584 151.246 133.371 147.662 132.944C147.662 131.749 147.491 131.024 147.15 130.768C146.809 130.512 146.126 130.384 145.102 130.384C144.761 122.107 144.59 107.515 144.59 86.608V71.12C144.59 56.784 144.462 46.416 144.206 40.016C150.691 38.224 157.347 37.328 164.174 37.328C171.257 37.328 177.913 38.5227 184.142 40.912C190.457 43.216 195.662 46.8 199.758 51.664C203.854 56.528 206.115 62.544 206.542 69.712V69.84ZM202.702 67.152C202.19 57.2533 198.222 50.0427 190.798 45.52C183.374 40.912 174.457 38.608 164.046 38.608C157.987 38.608 151.801 39.4187 145.486 41.04C145.827 50.5973 145.998 65.744 145.998 86.48V109.008C145.998 116.176 146.126 122.917 146.382 129.232C148.686 129.573 151.971 129.744 156.238 129.744C161.87 129.744 165.71 129.403 167.758 128.72L168.142 128.464C167.886 120.187 167.758 112.336 167.758 104.912V99.92C167.758 98.2987 167.715 97.104 167.63 96.336C169.166 96.592 170.702 96.72 172.238 96.72C177.017 96.72 181.753 95.4827 186.446 93.008C191.225 90.5333 195.107 87.1627 198.094 82.896C201.166 78.6293 202.702 74.0213 202.702 69.072V67.152ZM184.27 69.2C184.27 72.9547 182.819 75.344 179.918 76.368C177.102 77.392 173.305 77.9467 168.526 78.032L165.71 78.16H165.326C164.643 76.0267 164.302 72.528 164.302 67.664C164.302 63.6533 164.259 60.752 164.174 58.96C164.686 58.448 166.478 58.192 169.55 58.192C173.817 58.192 177.401 59.3867 180.302 61.776C181.582 62.544 182.563 63.6107 183.246 64.976C183.929 66.256 184.27 67.664 184.27 69.2ZM172.11 62.032C170.489 62.032 169.123 62.2027 168.014 62.544C168.099 63.824 168.142 65.6587 168.142 68.048V71.76V73.936C168.142 75.216 168.227 76.1547 168.398 76.752H169.038C173.134 76.752 176.462 76.2827 179.022 75.344C181.667 74.32 182.99 72.2293 182.99 69.072C182.99 66.5973 181.881 64.8053 179.662 63.696C177.443 62.5867 174.926 62.032 172.11 62.032Z" fill="black"/>
<path d="M38.568 152.816H38.184C36.2853 152.816 34.8027 153.296 33.736 154.256C32.6907 155.195 32.168 156.869 32.168 159.28C32.168 160.069 32.2427 160.624 32.392 160.944C32.5413 161.243 32.616 161.413 32.616 161.456C31.464 161.456 30.6 161.221 30.024 160.752C29.4693 160.261 29.192 159.461 29.192 158.352C29.192 156.837 29.5653 155.461 30.312 154.224C31.0587 152.965 32.2427 151.952 33.864 151.184C35.5067 150.416 37.5867 150.032 40.104 150.032C41.512 150.032 43.0267 150.16 44.648 150.416C46.0133 150.651 47.2293 150.768 48.296 150.768C49.6613 150.768 50.8987 150.544 52.008 150.096C51.9653 151.483 51.6133 152.507 50.952 153.168C50.2907 153.829 49.3093 154.16 48.008 154.16C47.3253 154.16 46.6427 154.107 45.96 154C45.2773 153.893 44.3067 153.712 43.048 153.456L38.632 174H34.024L38.568 152.816ZM49.6863 174.192C47.9796 174.192 46.6036 173.776 45.5583 172.944C44.5129 172.112 43.9902 170.789 43.9902 168.976C43.9902 167.568 44.2782 165.989 44.8543 164.24C45.4303 162.491 46.3689 160.965 47.6703 159.664C48.9716 158.363 50.6249 157.712 52.6302 157.712C54.9769 157.712 56.1503 158.736 56.1503 160.784C56.1503 161.979 55.8089 163.077 55.1263 164.08C54.4436 165.083 53.5369 165.893 52.4062 166.512C51.2756 167.109 50.0596 167.451 48.7583 167.536C48.7369 167.728 48.7263 168.016 48.7263 168.4C48.7263 170.512 49.7929 171.568 51.9263 171.568C53.1423 171.568 54.4436 171.248 55.8303 170.608C57.2169 169.968 58.4223 169.072 59.4463 167.92L57.6223 158H62.1343L63.3823 164.912C64.3423 163.888 65.0889 162.928 65.6223 162.032C66.1556 161.136 66.4223 160.4 66.4223 159.824C66.4223 159.632 66.4116 159.504 66.3903 159.44C66.0916 159.483 65.8996 159.504 65.8143 159.504C65.3023 159.504 64.9289 159.344 64.6943 159.024C64.4596 158.704 64.3423 158.309 64.3423 157.84C64.3423 157.307 64.5023 156.901 64.8223 156.624C65.1423 156.347 65.5583 156.208 66.0703 156.208C66.7956 156.208 67.3503 156.475 67.7343 157.008C68.1183 157.52 68.3103 158.181 68.3103 158.992C68.3103 160.016 67.9583 161.115 67.2543 162.288C66.5503 163.461 65.3769 164.933 63.7343 166.704L64.0223 168.272C64.0436 168.379 64.1076 168.72 64.2143 169.296C64.3423 169.851 64.5449 170.288 64.8223 170.608C65.0996 170.928 65.4623 171.088 65.9103 171.088C66.5289 171.088 67.1049 170.832 67.6383 170.32C68.1716 169.787 68.5556 169.104 68.7903 168.272H70.1343C69.3449 170.576 68.3529 172.144 67.1583 172.976C65.9636 173.787 64.7903 174.192 63.6383 174.192C62.5716 174.192 61.7609 173.861 61.2063 173.2C60.6516 172.539 60.1823 171.387 59.7983 169.744C58.5183 171.088 56.9503 172.165 55.0943 172.976C53.2596 173.787 51.4569 174.192 49.6863 174.192ZM49.0143 166C49.8249 165.979 50.5823 165.712 51.2863 165.2C52.0116 164.688 52.5876 164.037 53.0143 163.248C53.4623 162.437 53.6863 161.595 53.6863 160.72C53.6863 159.845 53.4196 159.408 52.8863 159.408C52.1396 159.408 51.3929 160.101 50.6463 161.488C49.8996 162.853 49.3556 164.357 49.0143 166ZM71.7893 174.192C70.7013 174.192 69.8906 173.861 69.3573 173.2C68.8453 172.539 68.5892 171.664 68.5892 170.576C68.5892 170.021 68.6532 169.456 68.7812 168.88L70.8293 159.28H69.7733L70.0293 158H71.0853L72.0453 153.584L76.7812 152.944C76.5893 153.755 76.4826 154.235 76.4613 154.384C76.3119 154.981 76.0559 156.187 75.6933 158H77.6133L77.3573 159.28H75.4373L73.3893 168.88C73.2826 169.349 73.2293 169.723 73.2293 170C73.2293 170.768 73.6026 171.152 74.3493 171.152C74.7333 171.152 75.0106 171.12 75.1813 171.056C74.7546 172.293 74.2533 173.125 73.6773 173.552C73.1013 173.979 72.4719 174.192 71.7893 174.192ZM88.4025 174.192C87.1865 174.192 86.1732 173.776 85.3625 172.944C84.5518 172.112 84.1465 170.811 84.1465 169.04C84.1465 167.461 84.4558 165.808 85.0745 164.08C85.7145 162.331 86.6532 160.859 87.8905 159.664C89.1492 158.448 90.6425 157.84 92.3705 157.84C93.2452 157.84 93.8958 157.989 94.3225 158.288C94.7492 158.587 94.9625 158.981 94.9625 159.472V159.696L95.3145 158H99.9225L97.6185 168.88C97.5332 169.2 97.4905 169.541 97.4905 169.904C97.4905 170.821 97.9278 171.28 98.8025 171.28C99.3998 171.28 99.9118 171.003 100.339 170.448C100.787 169.893 101.139 169.168 101.395 168.272H102.739C101.949 170.576 100.968 172.144 99.7945 172.976C98.6425 173.787 97.4798 174.192 96.3065 174.192C95.4105 174.192 94.6852 173.947 94.1305 173.456C93.5972 172.944 93.2772 172.208 93.1705 171.248C92.5518 172.123 91.8585 172.837 91.0905 173.392C90.3438 173.925 89.4478 174.192 88.4025 174.192ZM90.4825 171.088C91.0158 171.088 91.5385 170.843 92.0505 170.352C92.5838 169.84 92.9465 169.147 93.1385 168.272L94.6745 161.04C94.6745 160.763 94.5678 160.496 94.3545 160.24C94.1412 159.963 93.8105 159.824 93.3625 159.824C92.5092 159.824 91.7412 160.325 91.0585 161.328C90.3758 162.309 89.8425 163.504 89.4585 164.912C89.0745 166.299 88.8825 167.525 88.8825 168.592C88.8825 169.659 89.0318 170.341 89.3305 170.64C89.6505 170.939 90.0345 171.088 90.4825 171.088ZM112.958 174.192C111.657 174.192 110.697 173.851 110.078 173.168C109.481 172.464 109.182 171.6 109.182 170.576C109.182 170.128 109.236 169.627 109.342 169.072C109.449 168.496 109.556 167.941 109.662 167.408C109.79 166.875 109.876 166.533 109.918 166.384C110.089 165.637 110.249 164.901 110.398 164.176C110.548 163.451 110.622 162.864 110.622 162.416C110.622 161.328 110.238 160.784 109.47 160.784C108.916 160.784 108.425 161.061 107.998 161.616C107.572 162.149 107.23 162.853 106.974 163.728L104.798 174H100.19L103.582 158H108.19L107.838 159.664C108.905 158.469 110.153 157.872 111.582 157.872C112.67 157.872 113.534 158.171 114.174 158.768C114.814 159.365 115.134 160.272 115.134 161.488C115.134 162.107 115.06 162.8 114.91 163.568C114.761 164.315 114.548 165.232 114.27 166.32C114.1 166.981 113.94 167.632 113.79 168.272C113.662 168.891 113.598 169.381 113.598 169.744C113.598 170.171 113.694 170.501 113.886 170.736C114.078 170.971 114.409 171.088 114.878 171.088C115.518 171.088 116.03 170.864 116.414 170.416C116.798 169.947 117.182 169.232 117.566 168.272H118.91C118.121 170.619 117.204 172.197 116.158 173.008C115.134 173.797 114.068 174.192 112.958 174.192ZM121.403 174.192C120.187 174.192 119.173 173.776 118.363 172.944C117.552 172.112 117.146 170.811 117.146 169.04C117.146 167.461 117.456 165.808 118.075 164.08C118.715 162.331 119.653 160.859 120.891 159.664C122.149 158.448 123.643 157.84 125.371 157.84C126.245 157.84 126.896 157.989 127.323 158.288C127.749 158.587 127.963 158.981 127.963 159.472V159.6L129.531 152.24L134.267 151.6L130.587 168.88C130.501 169.2 130.459 169.509 130.459 169.808C130.459 170.661 130.896 171.088 131.771 171.088C132.155 171.088 132.496 171.024 132.795 170.896C132.709 171.963 132.325 172.784 131.643 173.36C130.981 173.915 130.192 174.192 129.275 174.192C128.421 174.192 127.696 173.979 127.099 173.552C126.523 173.104 126.139 172.432 125.947 171.536C124.667 173.307 123.152 174.192 121.403 174.192ZM123.483 171.088C123.952 171.088 124.421 170.885 124.891 170.48C125.381 170.075 125.744 169.509 125.979 168.784L126.107 168.272L127.675 160.944C127.483 160.197 127.045 159.824 126.363 159.824C125.509 159.824 124.741 160.325 124.059 161.328C123.376 162.309 122.843 163.504 122.459 164.912C122.075 166.299 121.883 167.525 121.883 168.592C121.883 169.659 122.032 170.341 122.331 170.64C122.651 170.939 123.035 171.088 123.483 171.088ZM147.079 153.648L151.815 153.008L149.543 163.696C150.567 163.611 151.505 163.163 152.359 162.352C153.233 161.541 153.916 160.539 154.407 159.344C154.897 158.149 155.143 156.976 155.143 155.824C155.143 154.544 154.812 153.499 154.151 152.688C153.489 151.877 152.497 151.472 151.175 151.472C148.572 151.472 146.535 152.155 145.063 153.52C143.612 154.885 142.887 156.795 142.887 159.248C142.887 160.037 142.961 160.592 143.111 160.912C143.26 161.211 143.335 161.381 143.335 161.424C142.183 161.424 141.319 161.189 140.743 160.72C140.188 160.229 139.911 159.429 139.911 158.32C139.911 156.955 140.465 155.632 141.575 154.352C142.705 153.051 144.145 152.005 145.895 151.216C147.644 150.405 149.393 150 151.143 150C152.828 150 154.236 150.288 155.367 150.864C156.497 151.44 157.329 152.208 157.863 153.168C158.417 154.107 158.695 155.152 158.695 156.304C158.695 157.691 158.311 159.045 157.543 160.368C156.796 161.691 155.719 162.779 154.311 163.632C152.903 164.464 151.281 164.88 149.447 164.88H149.287L147.335 174H142.727L147.079 153.648ZM161.231 174.192C160.207 174.192 159.375 173.872 158.735 173.232C158.116 172.592 157.806 171.632 157.806 170.352C157.806 169.819 157.892 169.125 158.062 168.272L161.487 152.24L166.223 151.6L162.543 168.88C162.457 169.2 162.415 169.541 162.415 169.904C162.415 170.331 162.511 170.64 162.703 170.832C162.916 171.003 163.257 171.088 163.727 171.088C164.345 171.088 164.921 170.832 165.455 170.32C165.988 169.787 166.372 169.104 166.607 168.272H167.951C167.161 170.576 166.148 172.144 164.911 172.976C163.673 173.787 162.447 174.192 161.231 174.192ZM170.434 174.192C169.218 174.192 168.204 173.776 167.394 172.944C166.583 172.112 166.178 170.811 166.178 169.04C166.178 167.461 166.487 165.808 167.106 164.08C167.746 162.331 168.684 160.859 169.922 159.664C171.18 158.448 172.674 157.84 174.402 157.84C175.276 157.84 175.927 157.989 176.354 158.288C176.78 158.587 176.994 158.981 176.994 159.472V159.696L177.346 158H181.954L179.65 168.88C179.564 169.2 179.522 169.541 179.522 169.904C179.522 170.821 179.959 171.28 180.834 171.28C181.431 171.28 181.943 171.003 182.37 170.448C182.818 169.893 183.17 169.168 183.426 168.272H184.77C183.98 170.576 182.999 172.144 181.826 172.976C180.674 173.787 179.511 174.192 178.338 174.192C177.442 174.192 176.716 173.947 176.162 173.456C175.628 172.944 175.308 172.208 175.202 171.248C174.583 172.123 173.89 172.837 173.122 173.392C172.375 173.925 171.479 174.192 170.434 174.192ZM172.514 171.088C173.047 171.088 173.57 170.843 174.082 170.352C174.615 169.84 174.978 169.147 175.17 168.272L176.706 161.04C176.706 160.763 176.599 160.496 176.386 160.24C176.172 159.963 175.842 159.824 175.394 159.824C174.54 159.824 173.772 160.325 173.09 161.328C172.407 162.309 171.874 163.504 171.49 164.912C171.106 166.299 170.914 167.525 170.914 168.592C170.914 169.659 171.063 170.341 171.362 170.64C171.682 170.939 172.066 171.088 172.514 171.088ZM188.43 182C187.427 182 186.542 181.669 185.774 181.008C185.027 180.368 184.654 179.547 184.654 178.544C184.654 177.605 184.888 176.837 185.358 176.24C185.827 175.643 186.435 175.173 187.182 174.832C187.928 174.491 188.931 174.128 190.19 173.744L190.51 172.336C189.422 173.573 188.12 174.192 186.606 174.192C185.582 174.192 184.75 173.872 184.11 173.232C183.491 172.592 183.181 171.632 183.181 170.352C183.181 169.819 183.267 169.125 183.438 168.272L185.614 158H190.222L187.918 168.88C187.854 169.136 187.822 169.403 187.822 169.68C187.822 170.619 188.142 171.088 188.782 171.088C189.379 171.088 189.891 170.843 190.318 170.352C190.744 169.84 191.086 169.147 191.342 168.272L193.518 158H198.158L194.254 176.56C193.827 178.608 193.07 180.027 191.982 180.816C190.915 181.605 189.731 182 188.43 182ZM187.694 179.152C188.078 179.152 188.44 178.949 188.782 178.544C189.123 178.16 189.39 177.531 189.582 176.656L189.966 174.768C188.835 175.152 187.96 175.6 187.342 176.112C186.723 176.624 186.414 177.285 186.414 178.096C186.414 178.352 186.542 178.587 186.798 178.8C187.054 179.035 187.352 179.152 187.694 179.152Z" fill="black"/>
</svg>
